<svg width="104" height="26" viewBox="0 0 104 26" fill="none" xmlns="http://www.w3.org/2000/svg">
<text fill="#5C5C50" xml:space="preserve" style="white-space: pre" font-family="Playfair Display" font-size="12" letter-spacing="0.14em"><tspan x="25.6841" y="17.984">CONQUEST</tspan></text>
<mask id="path-2-inside-1" fill="white">
<path d="M21.4506 8.4577C22.3055 10.0522 22.664 11.7802 22.5796 13.4644C22.4166 16.7142 20.6045 19.8008 17.5279 21.4505C15.731 22.4141 13.7644 22.747 11.8821 22.5261C8.87142 22.1726 6.07623 20.402 4.53511 17.5279C2.03044 12.8568 3.78665 7.03975 8.45773 4.53508C9.56923 3.93909 10.7456 3.58435 11.9268 3.45274C13.6573 3.25993 15.3981 3.54599 16.9604 4.2539C18.8133 5.09349 20.415 6.52647 21.4506 8.4577Z"/>
</mask>
<path d="M17.5279 21.4505L17.2917 21.0099L17.7344 21.9059L17.5279 21.4505ZM16.9604 4.2539L16.7362 4.70084L17.2132 3.82253L16.9604 4.2539ZM22.5796 13.4644L23.0792 13.4847L22.0805 13.4339L22.5796 13.4644ZM11.9268 3.45274L11.8944 2.95379L11.4279 2.98408L11.4268 3.45157L11.9268 3.45274ZM8.69401 4.97573C9.36988 4.61332 10.6107 4.149 12.0779 3.97727C13.5421 3.8059 15.1981 3.92947 16.7362 4.70084L17.1845 3.80696C15.4246 2.92434 13.5594 2.79705 11.9617 2.98405C10.3671 3.17069 9.00562 3.67395 8.22145 4.09443L8.69401 4.97573ZM22.08 13.4442C22.0113 15.1385 20.9469 19.0499 17.2917 21.0099L17.7642 21.8912C21.8417 19.7048 23.0021 15.3867 23.0792 13.4847L22.08 13.4442ZM11.4268 3.45157L11.3821 22.5249L12.3821 22.5272L12.4268 3.45391L11.4268 3.45157ZM11.9592 3.95169C12.4826 3.91771 13.3646 3.91467 14.28 4.01869C15.2082 4.12416 16.1066 4.33307 16.7076 4.68527L17.2132 3.82253C16.428 3.36234 15.3598 3.13496 14.3929 3.02508C13.4131 2.91375 12.4713 2.91633 11.8944 2.95379L11.9592 3.95169ZM22.0805 13.4339C22.0245 14.3477 21.7162 15.8516 20.9706 17.3259C20.2268 18.7966 19.0659 20.2043 17.3215 20.9951L17.7344 21.9059C19.7443 20.9948 21.0494 19.3859 21.863 17.7772C22.6747 16.1722 23.015 14.5341 23.0786 13.495L22.0805 13.4339ZM16.9604 4.2539L17.3731 3.34305L16.9604 4.2539ZM22.5796 13.4644L23.5783 13.5145L22.5796 13.4644ZM11.9268 3.45274L11.8161 2.45889L11.9268 3.45274ZM11.8821 22.5261L11.7655 23.5192L11.8821 22.5261ZM5.41641 17.0554C3.17272 12.871 4.74594 7.66006 8.93029 5.41638L7.98517 3.65378C2.82736 6.41944 0.888151 12.8427 3.65381 18.0005L5.41641 17.0554ZM16.5476 5.16475C18.2074 5.91685 19.6411 7.19929 20.5693 8.93026L22.3319 7.98514C21.1889 5.85364 19.4191 4.27013 17.3731 3.34305L16.5476 5.16475ZM20.5693 8.93026C21.3359 10.36 21.6564 11.9067 21.5808 13.4143L23.5783 13.5145C23.6716 11.6537 23.2752 9.74436 22.3319 7.98514L20.5693 8.93026ZM21.5808 13.4143C21.4347 16.3285 19.8103 19.092 17.0554 20.5692L18.0005 22.3318C21.3987 20.5097 23.3985 17.0998 23.5783 13.5145L21.5808 13.4143ZM8.93029 5.41638C9.92759 4.88162 10.9809 4.56432 12.0376 4.44659L11.8161 2.45889C10.5103 2.60438 9.21087 2.99655 7.98517 3.65378L8.93029 5.41638ZM12.0376 4.44659C13.5867 4.27399 15.1468 4.53001 16.5476 5.16475L17.3731 3.34305C15.6494 2.56198 13.7279 2.24587 11.8161 2.45889L12.0376 4.44659ZM17.0554 20.5692C15.4445 21.433 13.6844 21.7308 11.9987 21.5329L11.7655 23.5192C13.8444 23.7633 16.0175 23.3952 18.0005 22.3318L17.0554 20.5692ZM11.9987 21.5329C9.29877 21.2159 6.79654 19.6292 5.41641 17.0554L3.65381 18.0005C5.35592 21.1748 8.44406 23.1293 11.7655 23.5192L11.9987 21.5329Z" fill="url(#paint0_linear)" mask="url(#path-2-inside-1)"/>
<defs>
<linearGradient id="paint0_linear" x1="3.75599" y1="11.7231" x2="23.9646" y2="12.9918" gradientUnits="userSpaceOnUse">
<stop offset="0.288448" stop-color="#555248"/>
<stop offset="0.780176" stop-color="#1B1A17" stop-opacity="0"/>
</linearGradient>
</defs>
</svg>
