<svg width="130" height="35" viewBox="0 0 130 35" fill="none" xmlns="http://www.w3.org/2000/svg">
<text fill="white" xml:space="preserve" style="white-space: pre" font-family="Playfair Display" font-size="14" font-weight="bold" letter-spacing="0.14em"><tspan x="34" y="27.148">CONQUEST</tspan></text>
<mask id="path-2-inside-1" fill="white">
<path d="M28.0648 11.0657C29.1835 13.1519 29.6525 15.4127 29.542 17.6163C29.3288 21.8681 26.9579 25.9065 22.9327 28.0649C20.5816 29.3255 18.0087 29.7612 15.5459 29.472C11.6069 29.0096 7.94984 26.6931 5.93351 22.9327C2.65652 16.8213 4.95427 9.21054 11.0657 5.93356C12.5199 5.15378 14.059 4.68966 15.6045 4.51747C17.8685 4.26521 20.1461 4.63948 22.1901 5.56567C24.6143 6.66415 26.71 8.53899 28.0648 11.0657Z"/>
</mask>
<path d="M22.9327 28.0649L22.4601 27.1836L23.3456 28.9757L22.9327 28.0649ZM22.1901 5.56567L21.7418 6.45956L22.6958 4.70293L22.1901 5.56567ZM29.542 17.6163L30.5412 17.6568L28.5439 17.5551L29.542 17.6163ZM15.6045 4.51747L15.5397 3.51957L14.6067 3.58015L14.6045 4.51512L15.6045 4.51747ZM11.5382 6.81486C12.3851 6.36078 13.9668 5.76674 15.8424 5.54722C17.7118 5.32842 19.8061 5.48879 21.7418 6.45956L22.6384 4.67179C20.2591 3.47855 17.7464 3.31072 15.6099 3.56078C13.4795 3.81013 11.6565 4.48204 10.5931 5.05226L11.5382 6.81486ZM28.5428 17.5758C28.4559 19.7207 27.0965 24.6975 22.4601 27.1836L23.4052 28.9462C28.8861 26.0073 30.4374 20.2172 30.5412 17.6568L28.5428 17.5758ZM14.6045 4.51512L14.5459 29.4697L16.5459 29.4744L16.6045 4.51982L14.6045 4.51512ZM15.6693 5.51537C16.3355 5.47211 17.4688 5.46799 18.6442 5.60154C19.8452 5.73801 20.9619 6.00495 21.6845 6.42842L22.6958 4.70293C21.6047 4.0635 20.1485 3.75961 18.87 3.61433C17.5658 3.46614 16.313 3.46936 15.5397 3.51957L15.6693 5.51537ZM28.5439 17.5551C28.4733 18.7074 28.081 20.6286 27.1283 22.5124C26.1793 24.3887 24.7103 26.1611 22.5198 27.1541L23.3456 28.9757C26.0671 27.7419 27.8244 25.5675 28.913 23.415C29.9979 21.2699 30.4542 19.0802 30.5401 17.6774L28.5439 17.5551ZM22.1901 5.56567L23.0156 3.74397L23.0156 3.74397L22.1901 5.56567ZM29.542 17.6163L31.5395 17.7164L29.542 17.6163ZM15.6045 4.51747L15.383 2.52977L15.6045 4.51747ZM15.5459 29.472L15.3127 31.4584L15.5459 29.472ZM7.69611 21.9876C4.94109 16.8497 6.87284 10.4512 12.0108 7.69615L10.1205 4.17096C3.03569 7.96992 0.37195 16.793 4.17091 23.8779L7.69611 21.9876ZM21.3646 7.38738C23.4027 8.31087 25.1622 9.88464 26.3022 12.0108L29.8274 10.1206C28.2578 7.19334 25.826 5.01743 23.0156 3.74397L21.3646 7.38738ZM26.3022 12.0108C27.2442 13.7675 27.6373 15.6657 27.5445 17.5161L31.5395 17.7164C31.6677 15.1598 31.1227 12.5362 29.8274 10.1206L26.3022 12.0108ZM27.5445 17.5161C27.3649 21.0967 25.3696 24.4888 21.9876 26.3023L23.8778 29.8275C28.5463 27.3242 31.2926 22.6394 31.5395 17.7164L27.5445 17.5161ZM12.0108 7.69615C13.2366 7.03885 14.5296 6.64961 15.8259 6.50517L15.383 2.52977C13.5884 2.72972 11.8032 3.26872 10.1205 4.17096L12.0108 7.69615ZM15.8259 6.50517C17.7273 6.29333 19.6436 6.60751 21.3646 7.38738L23.0156 3.74397C20.6486 2.67145 18.0098 2.23709 15.383 2.52977L15.8259 6.50517ZM21.9876 26.3023C20.0087 27.3634 17.8486 27.7287 15.7791 27.4857L15.3127 31.4584C18.1687 31.7937 21.1546 31.2877 23.8778 29.8275L21.9876 26.3023ZM15.7791 27.4857C12.4616 27.0962 9.39046 25.1475 7.69611 21.9876L4.17091 23.8779C6.50922 28.2387 10.7522 30.923 15.3127 31.4584L15.7791 27.4857Z" fill="url(#paint0_linear)" mask="url(#path-2-inside-1)"/>
<defs>
<linearGradient id="paint0_linear" x1="4.91415" y1="15.338" x2="31.354" y2="16.9979" gradientUnits="userSpaceOnUse">
<stop offset="0.288448" stop-color="white"/>
<stop offset="0.780176" stop-color="white" stop-opacity="0"/>
</linearGradient>
</defs>
</svg>
