<svg width="120" height="26" viewBox="0 0 120 20" fill="none" xmlns="http://www.w3.org/2000/svg">
<path d="M18.6818 12.534C18.1028 14.3753 16.8142 16.6573 14.2917 18.0099C12.7282 18.8482 11.0306 19.1828 9.38315 19.0705L9.42568 0.942574C9.47776 0.938283 9.53005 0.934384 9.58253 0.930894C10.0681 0.927353 10.6665 0.948983 11.28 1.01869C11.5536 1.04978 11.8247 1.08987 12.0863 1.13997C12.6587 1.27555 13.2174 1.46619 13.754 1.70933C15.5103 2.50517 17.0281 3.86288 18.0099 5.69398C18.8203 7.20523 19.1598 8.84156 19.0803 10.4366C19.0472 10.9742 18.9268 11.7152 18.6818 12.534ZM8.42537 1.07455L8.38343 18.9466C5.74393 18.4703 3.34092 16.8376 1.97576 14.2916C-0.39842 9.86393 1.2663 4.34991 5.69401 1.97573C6.26708 1.66844 7.24635 1.28789 8.42537 1.07455Z"/>
<text class="company-name" y="50%" x="30" dy=".35em">CONQUEST</text>
<defs>
<linearGradient id="paint0_linear" x1="0.755987" y1="8.72312" x2="20.9646" y2="9.99183" gradientUnits="userSpaceOnUse">
<stop offset="0.288448" stop-color="#555248"/>
<stop offset="0.780176" stop-color="#030303" stop-opacity="0"/>
</linearGradient>
</defs>
</svg>
